<svg viewBox="0 0 900 480" xmlns="http://www.w3.org/2000/svg" font-family="system-ui, -apple-system, sans-serif">
  <!-- Hintergrund -->
  <rect width="900" height="480" fill="#fdfdfb"/>

  <!-- Innenraum -->
  <rect x="40" y="80" width="240" height="300" fill="#fdebd8" stroke="#e67e22" stroke-width="1.5"/>
  <text x="160" y="200" text-anchor="middle" font-size="22" font-weight="600" fill="#a8442e">Innen</text>
  <text x="160" y="232" text-anchor="middle" font-size="18" fill="#a8442e">ϑᵢ = 20 °C</text>
  <text x="160" y="262" text-anchor="middle" font-size="13" fill="#a8442e">(Wohnraum)</text>

  <!-- Wand: 3 Schichten - Innenputz -->
  <rect x="280" y="80" width="18" height="300" fill="#ecdcc8" stroke="#7a5a3a" stroke-width="1"/>
  <!-- Hochlochziegel -->
  <rect x="298" y="80" width="180" height="300" fill="#cd9a6a" stroke="#7a5a3a" stroke-width="1"/>
  <!-- Lochziegel-Andeutung -->
  <g fill="#7a5a3a" opacity="0.18">
    <rect x="310" y="100" width="6" height="32"/>
    <rect x="322" y="100" width="6" height="32"/>
    <rect x="334" y="100" width="6" height="32"/>
    <rect x="346" y="100" width="6" height="32"/>
    <rect x="358" y="100" width="6" height="32"/>
    <rect x="370" y="100" width="6" height="32"/>
    <rect x="382" y="100" width="6" height="32"/>
    <rect x="394" y="100" width="6" height="32"/>
    <rect x="406" y="100" width="6" height="32"/>
    <rect x="418" y="100" width="6" height="32"/>
    <rect x="430" y="100" width="6" height="32"/>
    <rect x="442" y="100" width="6" height="32"/>
    <rect x="454" y="100" width="6" height="32"/>
    <rect x="466" y="100" width="6" height="32"/>
    <rect x="310" y="148" width="6" height="32"/>
    <rect x="322" y="148" width="6" height="32"/>
    <rect x="334" y="148" width="6" height="32"/>
    <rect x="346" y="148" width="6" height="32"/>
    <rect x="358" y="148" width="6" height="32"/>
    <rect x="370" y="148" width="6" height="32"/>
    <rect x="382" y="148" width="6" height="32"/>
    <rect x="394" y="148" width="6" height="32"/>
    <rect x="406" y="148" width="6" height="32"/>
    <rect x="418" y="148" width="6" height="32"/>
    <rect x="430" y="148" width="6" height="32"/>
    <rect x="442" y="148" width="6" height="32"/>
    <rect x="454" y="148" width="6" height="32"/>
    <rect x="466" y="148" width="6" height="32"/>
    <rect x="310" y="196" width="6" height="32"/>
    <rect x="322" y="196" width="6" height="32"/>
    <rect x="334" y="196" width="6" height="32"/>
    <rect x="346" y="196" width="6" height="32"/>
    <rect x="358" y="196" width="6" height="32"/>
    <rect x="370" y="196" width="6" height="32"/>
    <rect x="382" y="196" width="6" height="32"/>
    <rect x="394" y="196" width="6" height="32"/>
    <rect x="406" y="196" width="6" height="32"/>
    <rect x="418" y="196" width="6" height="32"/>
    <rect x="430" y="196" width="6" height="32"/>
    <rect x="442" y="196" width="6" height="32"/>
    <rect x="454" y="196" width="6" height="32"/>
    <rect x="466" y="196" width="6" height="32"/>
    <rect x="310" y="244" width="6" height="32"/>
    <rect x="322" y="244" width="6" height="32"/>
    <rect x="334" y="244" width="6" height="32"/>
    <rect x="346" y="244" width="6" height="32"/>
    <rect x="358" y="244" width="6" height="32"/>
    <rect x="370" y="244" width="6" height="32"/>
    <rect x="382" y="244" width="6" height="32"/>
    <rect x="394" y="244" width="6" height="32"/>
    <rect x="406" y="244" width="6" height="32"/>
    <rect x="418" y="244" width="6" height="32"/>
    <rect x="430" y="244" width="6" height="32"/>
    <rect x="442" y="244" width="6" height="32"/>
    <rect x="454" y="244" width="6" height="32"/>
    <rect x="466" y="244" width="6" height="32"/>
    <rect x="310" y="292" width="6" height="32"/>
    <rect x="322" y="292" width="6" height="32"/>
    <rect x="334" y="292" width="6" height="32"/>
    <rect x="346" y="292" width="6" height="32"/>
    <rect x="358" y="292" width="6" height="32"/>
    <rect x="370" y="292" width="6" height="32"/>
    <rect x="382" y="292" width="6" height="32"/>
    <rect x="394" y="292" width="6" height="32"/>
    <rect x="406" y="292" width="6" height="32"/>
    <rect x="418" y="292" width="6" height="32"/>
    <rect x="430" y="292" width="6" height="32"/>
    <rect x="442" y="292" width="6" height="32"/>
    <rect x="454" y="292" width="6" height="32"/>
    <rect x="466" y="292" width="6" height="32"/>
    <rect x="310" y="340" width="6" height="32"/>
    <rect x="322" y="340" width="6" height="32"/>
    <rect x="334" y="340" width="6" height="32"/>
    <rect x="346" y="340" width="6" height="32"/>
    <rect x="358" y="340" width="6" height="32"/>
    <rect x="370" y="340" width="6" height="32"/>
    <rect x="382" y="340" width="6" height="32"/>
    <rect x="394" y="340" width="6" height="32"/>
    <rect x="406" y="340" width="6" height="32"/>
    <rect x="418" y="340" width="6" height="32"/>
    <rect x="430" y="340" width="6" height="32"/>
    <rect x="442" y="340" width="6" height="32"/>
    <rect x="454" y="340" width="6" height="32"/>
    <rect x="466" y="340" width="6" height="32"/>
  </g>
  <!-- Außenputz -->
  <rect x="478" y="80" width="22" height="300" fill="#ecdcc8" stroke="#7a5a3a" stroke-width="1"/>

  <!-- Maßlinien oben -->
  <line x1="280" y1="68" x2="280" y2="76" stroke="#666"/>
  <line x1="298" y1="68" x2="298" y2="76" stroke="#666"/>
  <line x1="280" y1="68" x2="298" y2="68" stroke="#666"/>
  <text x="289" y="60" text-anchor="middle" font-size="12" fill="#444">1,5</text>

  <line x1="298" y1="68" x2="478" y2="68" stroke="#666"/>
  <text x="388" y="60" text-anchor="middle" font-size="13" fill="#444">36,5 cm</text>

  <line x1="478" y1="68" x2="500" y2="68" stroke="#666"/>
  <line x1="500" y1="68" x2="500" y2="76" stroke="#666"/>
  <text x="489" y="60" text-anchor="middle" font-size="12" fill="#444">2,0</text>

  <!-- Außenraum -->
  <rect x="500" y="80" width="360" height="300" fill="#d6eaf8" stroke="#3498db" stroke-width="1.5"/>
  <text x="680" y="200" text-anchor="middle" font-size="22" font-weight="600" fill="#1e6091">Außen</text>
  <text x="680" y="232" text-anchor="middle" font-size="18" fill="#1e6091">ϑₐ = 0 °C</text>
  <text x="680" y="262" text-anchor="middle" font-size="13" fill="#1e6091">(Winter)</text>

  <!-- Wärmestrom-Pfeile -->
  <defs>
    <marker id="arrowRed" markerWidth="14" markerHeight="14" refX="12" refY="5" orient="auto">
      <path d="M0,0 L0,10 L12,5 z" fill="#e74c3c"/>
    </marker>
  </defs>
  <g stroke="#e74c3c" stroke-width="3" fill="none" marker-end="url(#arrowRed)" opacity="0.85">
    <line x1="200" y1="135" x2="600" y2="135"/>
    <line x1="200" y1="220" x2="600" y2="220"/>
    <line x1="200" y1="305" x2="600" y2="305"/>
  </g>

  <!-- Bezeichnung Wärmestrom -->
  <text x="450" y="115" text-anchor="middle" font-size="16" font-weight="600" fill="#a8341f">Wärmestrom Q̇</text>

  <!-- Schichten-Beschriftung unten -->
  <text x="289" y="400" text-anchor="middle" font-size="10" fill="#444">Innenputz</text>
  <text x="388" y="400" text-anchor="middle" font-size="13" font-weight="600" fill="#444">Hochlochziegel</text>
  <text x="489" y="400" text-anchor="middle" font-size="10" fill="#444">Außenputz</text>

  <!-- Formel rechts unten -->
  <text x="450" y="440" text-anchor="middle" font-size="17" font-weight="600" fill="#222">Q̇ = U · A · Δϑ      mit   Δϑ = ϑᵢ − ϑₐ</text>
</svg>
